<?xml version="1.0" encoding="UTF-8"?>
<svg version="1.1" xmlns="http://www.w3.org/2000/svg" width="300" height="127">
<path d="M0 0 C99 0 198 0 300 0 C300 41.91 300 83.82 300 127 C201 127 102 127 0 127 C0 85.09 0 43.18 0 0 Z " fill="#EF7E52" transform="translate(0,0)"/>
<path d="M0 0 C4.48748269 2.47946514 6.99752367 5.75872336 8.875 10.5 C10.00391244 15.65503378 8.8140767 20.11844406 6.265625 24.66796875 C3.32987772 28.5355684 -0.42689068 30.91926409 -5.17578125 31.94140625 C-10.60965133 32.26849358 -13.85594262 30.53759852 -18.125 27.5 C-22.94233162 22.17558084 -23.59459534 18.63643041 -23.53515625 11.5546875 C-22.89925341 6.81872538 -20.81239131 4.3857845 -17.125 1.5 C-11.43913897 -2.25024877 -6.25171433 -2.64405211 0 0 Z " fill="#FCF5F4" transform="translate(212.125,48.5)"/>
<path d="M0 0 C1.4540625 0.0309375 1.4540625 0.0309375 2.9375 0.0625 C4.5130766 3.83077943 6.07935668 7.60277448 7.63720703 11.37841797 C8.16820661 12.66169394 8.70171316 13.9439356 9.23779297 15.22509766 C10.00890415 17.06918359 10.7702012 18.91736363 11.53125 20.765625 C11.99208984 21.87583008 12.45292969 22.98603516 12.92773438 24.12988281 C13.9375 27.0625 13.9375 27.0625 13.9375 31.0625 C4.3675 31.0625 -5.2025 31.0625 -15.0625 31.0625 C-11.68411064 19.80120214 -11.68411064 19.80120214 -10.0546875 15.74609375 C-9.53455078 14.44768555 -9.53455078 14.44768555 -9.00390625 13.12304688 C-8.65199219 12.25744141 -8.30007812 11.39183594 -7.9375 10.5 C-7.57785156 9.59958984 -7.21820313 8.69917969 -6.84765625 7.77148438 C-3.74641521 0.07645745 -3.74641521 0.07645745 0 0 Z " fill="#FDF8F6" transform="translate(129.0625,47.9375)"/>
<path d="M0 0 C1.98 0 3.96 0 6 0 C9.21081727 6.14683487 11.81023188 12.38702405 14.25 18.875 C14.61351563 19.82375 14.97703125 20.7725 15.3515625 21.75 C18 28.73948543 18 28.73948543 18 31 C8.43 31 -1.14 31 -11 31 C-10.22890294 26.37341763 -9.43594894 23.17182399 -7.71484375 18.9453125 C-7.26689453 17.83671875 -6.81894531 16.728125 -6.35742188 15.5859375 C-5.88884766 14.44382812 -5.42027344 13.30171875 -4.9375 12.125 C-4.46505859 10.9596875 -3.99261719 9.794375 -3.50585938 8.59375 C-2.34267209 5.72690456 -1.17389942 2.86247193 0 0 Z " fill="#FDF9F6" transform="translate(62,48)"/>
<path d="M0 0 C5 0 5 0 6.8527832 1.74414062 C7.41312256 2.54013672 7.97346191 3.33613281 8.55078125 4.15625 C9.16630859 5.01347656 9.78183594 5.87070312 10.41601562 6.75390625 C11.04185547 7.66011719 11.66769531 8.56632812 12.3125 9.5 C12.95767578 10.40621094 13.60285156 11.31242187 14.26757812 12.24609375 C15.85979579 14.48699269 17.43184525 16.74219668 19 19 C19.33 12.73 19.66 6.46 20 0 C21.98 0 23.96 0 26 0 C26 10.23 26 20.46 26 31 C21 31 21 31 18.71875 28.83984375 C17.9865625 27.88207031 17.254375 26.92429687 16.5 25.9375 C15.72785156 24.9371875 14.95570313 23.936875 14.16015625 22.90625 C13.44730469 21.9471875 12.73445312 20.988125 12 20 C11.44183594 19.2678125 10.88367188 18.535625 10.30859375 17.78125 C7 13.33208689 7 13.33208689 7 11 C6.34 11 5.68 11 5 11 C5 17.6 5 24.2 5 31 C3.35 31 1.7 31 0 31 C0 20.77 0 10.54 0 0 Z " fill="#FDF9F8" transform="translate(153,48)"/>
<path d="M0 0 C2.5 1.5 2.5 1.5 4 3 C3.34 4.32 2.68 5.64 2 7 C-0.97 7 -3.94 7 -7 7 C-7 8.32 -7 9.64 -7 11 C-6.22914063 11.39832031 -5.45828125 11.79664063 -4.6640625 12.20703125 C-3.66117188 12.73683594 -2.65828125 13.26664063 -1.625 13.8125 C-0.12839844 14.59560547 -0.12839844 14.59560547 1.3984375 15.39453125 C4 17 4 17 6 20 C6.49557946 23.79944252 6.32625657 25.48731111 4.25 28.75 C1.00290612 31.99709388 -0.73045223 32.85627761 -5.3125 33.375 C-9.89993657 32.90848103 -12.1723923 31.49966217 -16 29 C-14.25 25.125 -14.25 25.125 -12 24 C-11.01 24.66 -10.02 25.32 -9 26 C-6.66800612 26.07905064 -4.33167378 26.08798769 -2 26 C-2 24.35 -2 22.7 -2 21 C-2.77085937 20.60167969 -3.54171875 20.20335938 -4.3359375 19.79296875 C-5.33882812 19.26316406 -6.34171875 18.73335937 -7.375 18.1875 C-8.37273437 17.66542969 -9.37046875 17.14335938 -10.3984375 16.60546875 C-13 15 -13 15 -15 12 C-15.4375 9.125 -15.4375 9.125 -15 6 C-10.45766837 0.62092307 -7.00421841 -0.83053973 0 0 Z " fill="#FCF4F3" transform="translate(244,47)"/>
<path d="M0 0 C1.98 0 3.96 0 6 0 C8.64 6.6 11.28 13.2 14 20 C15.6012468 17.59812979 16.51691416 15.88385731 17.47265625 13.2421875 C17.73240234 12.53449219 17.99214844 11.82679687 18.25976562 11.09765625 C18.52466797 10.36417969 18.78957031 9.63070312 19.0625 8.875 C21.87141883 1.12858117 21.87141883 1.12858117 23 0 C24.99958364 -0.04080783 27.00045254 -0.04254356 29 0 C26.96150996 7.19386557 24.51843632 14.15709165 21.8125 21.125 C21.44447266 22.08148438 21.07644531 23.03796875 20.69726562 24.0234375 C19.80144555 26.35024289 18.90232227 28.67571021 18 31 C15.69 31 13.38 31 11 31 C9.42920342 26.90818124 7.86273669 22.81473984 6.30029297 18.71972656 C5.7679579 17.32636632 5.23443423 15.9334596 4.69970703 14.54101562 C3.93210244 12.54154094 3.16876212 10.54048383 2.40625 8.5390625 C1.94541016 7.33459473 1.48457031 6.13012695 1.00976562 4.88916016 C0 2 0 2 0 0 Z " fill="#FDF9F6" transform="translate(83,48)"/>
<path d="M0 0 C2.82275936 1.25455972 4.46288541 2.28384722 6.3125 4.75 C7.63189267 9.06801237 7.58520303 12.68329318 5.75 16.8125 C3.8417835 19.19777062 2.90651969 20.11189676 0 21 C-4.23244524 21.4617213 -6.27106961 21.47538938 -9.875 19.125 C-12.85647127 16.14352873 -13.23343842 14.31201742 -13.4375 10.1875 C-13.40528339 7.40479039 -13.37798635 5.61152792 -11.90625 3.23046875 C-8.1722292 -0.21555576 -4.87722924 -0.70941516 0 0 Z " fill="#ED7664" transform="translate(208,53)"/>
<path d="M0 0 C2.69833073 2.35814004 3.88464964 4.61797706 5.1875 7.9375 C5.53167969 8.79214844 5.87585938 9.64679688 6.23046875 10.52734375 C7 13 7 13 7 17 C2.71 17 -1.58 17 -6 17 C-4.31108451 11.12900806 -2.53630629 5.55571853 0 0 Z " fill="#F08655" transform="translate(128,57)"/>
<path d="M0 0 C2.51242417 3.03794555 3.88228534 5.91438973 5.1875 9.625 C5.53167969 10.58664063 5.87585938 11.54828125 6.23046875 12.5390625 C7 15 7 15 7 17 C2.71 17 -1.58 17 -6 17 C-4.80628441 10.63351684 -3.10124153 5.68560947 0 0 Z " fill="#F29347" transform="translate(65,57)"/>
<path d="M0 0 C0.66 0 1.32 0 2 0 C2 1.32 2 2.64 2 4 C-2.29 4 -6.58 4 -11 4 C-11 3.34 -11 2.68 -11 2 C-7.37 2 -3.74 2 0 2 C0 1.34 0 0.68 0 0 Z " fill="#F2986E" transform="translate(133,70)"/>
</svg>
